<mxfile host="Electron" agent="Mozilla/5.0 (Windows NT 10.0; Win64; x64) AppleWebKit/537.36 (KHTML, like Gecko) draw.io/24.7.17 Chrome/128.0.6613.36 Electron/32.0.1 Safari/537.36" version="24.7.17">
  <diagram name="Pagina-1" id="SYxNi2GdibO4GmXdLjmR">
    <mxGraphModel dx="1050" dy="629" grid="1" gridSize="10" guides="1" tooltips="1" connect="1" arrows="1" fold="1" page="1" pageScale="1" pageWidth="827" pageHeight="1169" math="0" shadow="0">
      <root>
        <mxCell id="0" />
        <mxCell id="1" parent="0" />
        <mxCell id="vBNy_PF3JLJdZ2dFH-VR-1" value="Cliente" style="swimlane;childLayout=stackLayout;horizontal=1;startSize=50;horizontalStack=0;rounded=1;fontSize=14;fontStyle=0;strokeWidth=2;resizeParent=0;resizeLast=1;shadow=0;dashed=0;align=center;arcSize=4;whiteSpace=wrap;html=1;" parent="1" vertex="1">
          <mxGeometry x="40" y="120" width="160" height="120" as="geometry" />
        </mxCell>
        <mxCell id="vBNy_PF3JLJdZ2dFH-VR-2" value="&lt;b&gt;Codice (PK)&lt;/b&gt;&lt;div&gt;Nome&lt;/div&gt;&lt;div&gt;Cognome&lt;/div&gt;&lt;div&gt;Telefono&lt;/div&gt;" style="align=left;strokeColor=none;fillColor=none;spacingLeft=4;fontSize=12;verticalAlign=top;resizable=0;rotatable=0;part=1;html=1;" parent="vBNy_PF3JLJdZ2dFH-VR-1" vertex="1">
          <mxGeometry y="50" width="160" height="70" as="geometry" />
        </mxCell>
        <mxCell id="vBNy_PF3JLJdZ2dFH-VR-3" value="Automobile" style="swimlane;childLayout=stackLayout;horizontal=1;startSize=50;horizontalStack=0;rounded=1;fontSize=14;fontStyle=0;strokeWidth=2;resizeParent=0;resizeLast=1;shadow=0;dashed=0;align=center;arcSize=4;whiteSpace=wrap;html=1;" parent="1" vertex="1">
          <mxGeometry x="330" y="120" width="160" height="120" as="geometry" />
        </mxCell>
        <mxCell id="vBNy_PF3JLJdZ2dFH-VR-4" value="&lt;b&gt;Targa (PK)&lt;/b&gt;&lt;div&gt;Modello&lt;br&gt;Proprietario&lt;/div&gt;" style="align=left;strokeColor=none;fillColor=none;spacingLeft=4;fontSize=12;verticalAlign=top;resizable=0;rotatable=0;part=1;html=1;" parent="vBNy_PF3JLJdZ2dFH-VR-3" vertex="1">
          <mxGeometry y="50" width="160" height="70" as="geometry" />
        </mxCell>
        <mxCell id="vBNy_PF3JLJdZ2dFH-VR-5" value="" style="edgeStyle=entityRelationEdgeStyle;fontSize=12;html=1;endArrow=ERoneToMany;startArrow=ERmandOne;rounded=0;entryX=0;entryY=0;entryDx=0;entryDy=0;endSize=12;startSize=12;startFill=0;endFill=0;" parent="1" target="vBNy_PF3JLJdZ2dFH-VR-4" edge="1">
          <mxGeometry width="100" height="100" relative="1" as="geometry">
            <mxPoint x="200" y="170" as="sourcePoint" />
            <mxPoint x="300" y="70" as="targetPoint" />
          </mxGeometry>
        </mxCell>
        <mxCell id="vBNy_PF3JLJdZ2dFH-VR-6" value="Affidatario" style="text;html=1;align=center;verticalAlign=middle;whiteSpace=wrap;rounded=0;" parent="1" vertex="1">
          <mxGeometry x="230" y="140" width="60" height="30" as="geometry" />
        </mxCell>
        <mxCell id="vBNy_PF3JLJdZ2dFH-VR-7" value="Officina" style="swimlane;childLayout=stackLayout;horizontal=1;startSize=50;horizontalStack=0;rounded=1;fontSize=14;fontStyle=0;strokeWidth=2;resizeParent=0;resizeLast=1;shadow=0;dashed=0;align=center;arcSize=4;whiteSpace=wrap;html=1;" parent="1" vertex="1">
          <mxGeometry x="640" y="120" width="160" height="120" as="geometry" />
        </mxCell>
        <mxCell id="vBNy_PF3JLJdZ2dFH-VR-8" value="&lt;b&gt;Nome (PK)&lt;/b&gt;&lt;div&gt;Indirizzo&lt;/div&gt;&lt;div&gt;Telefono&lt;/div&gt;" style="align=left;strokeColor=none;fillColor=none;spacingLeft=4;fontSize=12;verticalAlign=top;resizable=0;rotatable=0;part=1;html=1;" parent="vBNy_PF3JLJdZ2dFH-VR-7" vertex="1">
          <mxGeometry y="50" width="160" height="70" as="geometry" />
        </mxCell>
        <mxCell id="vBNy_PF3JLJdZ2dFH-VR-9" value="" style="edgeStyle=entityRelationEdgeStyle;fontSize=12;html=1;endArrow=ERzeroToMany;startArrow=ERoneToMany;rounded=0;entryX=0;entryY=0;entryDx=0;entryDy=0;endSize=12;startSize=12;startFill=0;endFill=0;" parent="1" target="vBNy_PF3JLJdZ2dFH-VR-8" edge="1">
          <mxGeometry width="100" height="100" relative="1" as="geometry">
            <mxPoint x="490" y="170" as="sourcePoint" />
            <mxPoint x="590" y="70" as="targetPoint" />
          </mxGeometry>
        </mxCell>
        <mxCell id="vBNy_PF3JLJdZ2dFH-VR-10" value="Esec. Lavori" style="text;html=1;align=center;verticalAlign=middle;whiteSpace=wrap;rounded=0;" parent="1" vertex="1">
          <mxGeometry x="520" y="140" width="80" height="30" as="geometry" />
        </mxCell>
        <mxCell id="vBNy_PF3JLJdZ2dFH-VR-11" value="Interventi" style="swimlane;childLayout=stackLayout;horizontal=1;startSize=40;horizontalStack=0;rounded=1;fontSize=14;fontStyle=0;strokeWidth=2;resizeParent=0;resizeLast=1;shadow=0;dashed=0;align=center;arcSize=4;whiteSpace=wrap;html=1;" parent="1" vertex="1">
          <mxGeometry x="330" y="350" width="160" height="120" as="geometry" />
        </mxCell>
        <mxCell id="vBNy_PF3JLJdZ2dFH-VR-12" value="&lt;b&gt;Numero progressivo (PK)&lt;/b&gt;&lt;div&gt;Data inizio&lt;div&gt;Data fine&lt;/div&gt;&lt;div&gt;Ore di manodopera&lt;/div&gt;&lt;/div&gt;&lt;div&gt;&lt;b&gt;Officina (PK)(FK)&lt;/b&gt;&lt;/div&gt;" style="align=left;strokeColor=none;fillColor=none;spacingLeft=4;fontSize=12;verticalAlign=top;resizable=0;rotatable=0;part=1;html=1;" parent="vBNy_PF3JLJdZ2dFH-VR-11" vertex="1">
          <mxGeometry y="40" width="160" height="80" as="geometry" />
        </mxCell>
        <mxCell id="vBNy_PF3JLJdZ2dFH-VR-13" value="" style="endArrow=ERmandOne;html=1;rounded=0;exitX=0.525;exitY=0;exitDx=0;exitDy=0;exitPerimeter=0;endSize=12;startSize=12;startArrow=ERoneToMany;startFill=0;endFill=0;" parent="1" source="vBNy_PF3JLJdZ2dFH-VR-11" edge="1">
          <mxGeometry width="50" height="50" relative="1" as="geometry">
            <mxPoint x="364" y="290" as="sourcePoint" />
            <mxPoint x="414" y="240" as="targetPoint" />
          </mxGeometry>
        </mxCell>
        <mxCell id="vBNy_PF3JLJdZ2dFH-VR-14" value="Riparazione" style="text;html=1;align=center;verticalAlign=middle;whiteSpace=wrap;rounded=0;" parent="1" vertex="1">
          <mxGeometry x="420" y="280" width="60" height="30" as="geometry" />
        </mxCell>
        <mxCell id="vBNy_PF3JLJdZ2dFH-VR-15" value="Pezzi di ricambio" style="swimlane;childLayout=stackLayout;horizontal=1;startSize=50;horizontalStack=0;rounded=1;fontSize=14;fontStyle=0;strokeWidth=2;resizeParent=0;resizeLast=1;shadow=0;dashed=0;align=center;arcSize=4;whiteSpace=wrap;html=1;" parent="1" vertex="1">
          <mxGeometry x="40" y="350" width="160" height="120" as="geometry" />
        </mxCell>
        <mxCell id="vBNy_PF3JLJdZ2dFH-VR-16" value="&lt;b&gt;Codice (PK)&lt;/b&gt;&lt;div&gt;Nome&lt;/div&gt;&lt;div&gt;Costo unitario&lt;/div&gt;" style="align=left;strokeColor=none;fillColor=none;spacingLeft=4;fontSize=12;verticalAlign=top;resizable=0;rotatable=0;part=1;html=1;" parent="vBNy_PF3JLJdZ2dFH-VR-15" vertex="1">
          <mxGeometry y="50" width="160" height="70" as="geometry" />
        </mxCell>
        <mxCell id="vBNy_PF3JLJdZ2dFH-VR-17" value="" style="endArrow=ERzeroToMany;html=1;rounded=0;entryX=-0.005;entryY=0.095;entryDx=0;entryDy=0;endSize=12;startSize=12;startArrow=ERzeroToMany;startFill=0;endFill=0;entryPerimeter=0;" parent="1" target="vBNy_PF3JLJdZ2dFH-VR-12" edge="1">
          <mxGeometry width="50" height="50" relative="1" as="geometry">
            <mxPoint x="200" y="400" as="sourcePoint" />
            <mxPoint x="250" y="350" as="targetPoint" />
          </mxGeometry>
        </mxCell>
        <mxCell id="vBNy_PF3JLJdZ2dFH-VR-18" value="Utilizzo" style="text;html=1;align=center;verticalAlign=middle;whiteSpace=wrap;rounded=0;" parent="1" vertex="1">
          <mxGeometry x="230" y="370" width="60" height="30" as="geometry" />
        </mxCell>
        <mxCell id="vBNy_PF3JLJdZ2dFH-VR-19" value="" style="endArrow=circle;html=1;rounded=0;endFill=0;startSize=6;endSize=3;" parent="1" edge="1">
          <mxGeometry width="50" height="50" relative="1" as="geometry">
            <mxPoint x="260" y="380" as="sourcePoint" />
            <mxPoint x="260" y="350" as="targetPoint" />
          </mxGeometry>
        </mxCell>
        <mxCell id="vBNy_PF3JLJdZ2dFH-VR-20" value="QuantitÃ " style="text;html=1;align=center;verticalAlign=middle;whiteSpace=wrap;rounded=0;" parent="1" vertex="1">
          <mxGeometry x="230" y="330" width="60" height="30" as="geometry" />
        </mxCell>
        <mxCell id="vBNy_PF3JLJdZ2dFH-VR-21" value="" style="endArrow=none;html=1;rounded=0;startArrow=ERoneToMany;startFill=0;endSize=12;startSize=12;" parent="1" edge="1">
          <mxGeometry width="50" height="50" relative="1" as="geometry">
            <mxPoint x="490" y="400" as="sourcePoint" />
            <mxPoint x="630" y="400" as="targetPoint" />
          </mxGeometry>
        </mxCell>
        <mxCell id="vBNy_PF3JLJdZ2dFH-VR-22" value="Commessa" style="text;html=1;align=center;verticalAlign=middle;whiteSpace=wrap;rounded=0;" parent="1" vertex="1">
          <mxGeometry x="640" y="380" width="60" height="30" as="geometry" />
        </mxCell>
        <mxCell id="vBNy_PF3JLJdZ2dFH-VR-25" value="" style="endArrow=ERzeroToOne;html=1;rounded=0;exitX=0.667;exitY=-0.066;exitDx=0;exitDy=0;exitPerimeter=0;endFill=0;endSize=12;" parent="1" source="vBNy_PF3JLJdZ2dFH-VR-22" edge="1">
          <mxGeometry width="50" height="50" relative="1" as="geometry">
            <mxPoint x="630" y="290" as="sourcePoint" />
            <mxPoint x="680" y="240" as="targetPoint" />
          </mxGeometry>
        </mxCell>
        <mxCell id="vBNy_PF3JLJdZ2dFH-VR-27" value="Cliente &lt;span style=&quot;white-space: pre;&quot;&gt;&#x9;&lt;span style=&quot;white-space: pre;&quot;&gt;&#x9;&lt;/span&gt;&lt;/span&gt;(&lt;u&gt;Codice Fiscale&lt;/u&gt;(PK), Nome, Cognome, Telefono)&lt;div&gt;Automobile &lt;span style=&quot;white-space: pre;&quot;&gt;&#x9;&lt;/span&gt;(&lt;u&gt;Targa&lt;/u&gt;(PK), Proprietario, Modello, &lt;u&gt;Cliente(&lt;/u&gt;FK))&lt;/div&gt;&lt;div&gt;Officina &lt;span style=&quot;white-space: pre;&quot;&gt;&#x9;&lt;/span&gt;&lt;span style=&quot;white-space: pre;&quot;&gt;&#x9;&lt;/span&gt;(&lt;u&gt;Nome&lt;/u&gt;(PK), Telefono, Indirizzo)&lt;/div&gt;&lt;div&gt;Esec_Lavori &lt;span style=&quot;white-space: pre;&quot;&gt;&#x9;&lt;/span&gt;(&lt;u&gt;Automobile(&lt;/u&gt;PK,FK&lt;u&gt;)&lt;/u&gt;, &lt;u&gt;Officina(&lt;/u&gt;PK,FK&lt;u&gt;)&lt;/u&gt;)&lt;/div&gt;&lt;div&gt;Interventi &lt;span style=&quot;white-space: pre;&quot;&gt;&#x9;&lt;/span&gt;(&lt;u&gt;Numero progressivo&lt;/u&gt;(PK), Data inizio, Data fine, Ore di manodopera, &lt;span style=&quot;white-space: pre;&quot;&gt;&#x9;&lt;/span&gt;&lt;span style=&quot;white-space: pre;&quot;&gt;&#x9;&lt;/span&gt;&lt;span style=&quot;white-space: pre;&quot;&gt;&#x9;&lt;/span&gt;&lt;u&gt;Auto&lt;/u&gt;(FK), &lt;u&gt;Officina&lt;/u&gt;(PK)(FK))&lt;/div&gt;&lt;div&gt;Pezzi di ricam&lt;span style=&quot;white-space: pre;&quot;&gt;&#x9;&lt;/span&gt;(&lt;u&gt;Codice&lt;/u&gt;(PK), Costo unitario, nome)&lt;span style=&quot;white-space: pre;&quot;&gt;&lt;/span&gt;&lt;/div&gt;&lt;div&gt;Utilizzo&lt;span style=&quot;white-space: pre;&quot;&gt;&#x9;&lt;/span&gt;&lt;span style=&quot;white-space: pre;&quot;&gt;&#x9;&lt;/span&gt;(&lt;u&gt;Pezzi di ricambio(&lt;/u&gt;PK,FK), &lt;u&gt;Interventi_numeroProgressivo&lt;/u&gt;(PK,FK),&lt;/div&gt;&lt;div&gt;&lt;span style=&quot;white-space: pre;&quot;&gt;&#x9;&lt;/span&gt;&lt;span style=&quot;white-space: pre;&quot;&gt;&#x9;&lt;/span&gt;&lt;span style=&quot;white-space: pre;&quot;&gt;&#x9;&lt;/span&gt;&lt;u&gt;Interventi_Officina&lt;/u&gt;(PK,FK),QuantitÃ )&lt;/div&gt;" style="text;html=1;align=left;verticalAlign=middle;whiteSpace=wrap;rounded=0;" parent="1" vertex="1">
          <mxGeometry x="180" y="520" width="450" height="140" as="geometry" />
        </mxCell>
        <mxCell id="aoHzG7589-hbL0Rix2Wg-1" value="Per identificare interventi abbiamo bisogno del numero progressivo e del nome di officina" style="text;html=1;align=center;verticalAlign=middle;whiteSpace=wrap;rounded=0;" vertex="1" parent="1">
          <mxGeometry x="490" y="430" width="210" height="50" as="geometry" />
        </mxCell>
        <mxCell id="aoHzG7589-hbL0Rix2Wg-2" value="&lt;div style=&quot;&quot;&gt;&lt;span style=&quot;background-color: initial;&quot;&gt;REGOLE DELLA TRADUZIONE A SCHEMA LOGICO&lt;/span&gt;&lt;/div&gt;&lt;div style=&quot;text-align: left;&quot;&gt;&lt;span style=&quot;background-color: initial;&quot;&gt;1) Una tabella per entitÃ , il suo identificativo sarÃ  la primary key (PK)&lt;/span&gt;&lt;/div&gt;&lt;div style=&quot;text-align: left;&quot;&gt;2) Ogni associazione N a N viene inglobata in una nuova tabella, se 1 a N viene inglobata nella tabella di 1. Nel caso 1 a N, l&#39;identificatore dell&#39;entitÃ  che si collega diventa (FK). Nel caso di N a N, la nuova tabella avrÃ  come chiave la coppia delle chiavi delle due entitÃ &lt;/div&gt;" style="text;html=1;align=center;verticalAlign=middle;whiteSpace=wrap;rounded=0;" vertex="1" parent="1">
          <mxGeometry x="670" y="520" width="190" height="200" as="geometry" />
        </mxCell>
        <mxCell id="aoHzG7589-hbL0Rix2Wg-4" value="Utilizziamo (PK,FK) quando l&#39;identificatore dell&#39;entitÃ  collegata Ã¨ anche una nostra chiave identificativa. Lo utilizziamo nelle tabelle extra delle relazioni N a N e nel nostro caso anche in &quot;Interventi&quot; perchÃ© ha specificato che l&#39;intervento viene identificato oltre che dal proprio numero progressivo, anche dall&#39;identificatore di officina.&lt;div&gt;&lt;br&gt;&lt;div&gt;Utilizziamo (FK) nei casi di relazione 1 a N nella tabella dell&#39;entitÃ  posta a 1, nel nostro caso nell&#39;entitÃ  Automobile nella relazione con Cliente; Automobile avrÃ  come (FK) l&#39;identificatore dell&#39;entitÃ  cliente&lt;/div&gt;&lt;div&gt;&lt;br&gt;&lt;/div&gt;&lt;div&gt;Quando inseriamo una qualsiasi Foreign Key (FK), inseriamo solo il nome dell&#39;entitÃ , non l&#39;identificatore specifico (es. Cliente(FK))&lt;/div&gt;&lt;/div&gt;" style="text;html=1;align=left;verticalAlign=middle;whiteSpace=wrap;rounded=0;" vertex="1" parent="1">
          <mxGeometry x="180" y="680" width="450" height="180" as="geometry" />
        </mxCell>
      </root>
    </mxGraphModel>
  </diagram>
</mxfile>
